<svg preserveAspectRatio="none" width="100%" height="100%" overflow="visible" style="display: block;" viewBox="0 0 1638.89 321.58" fill="none" xmlns="http://www.w3.org/2000/svg">
<g id="New York-style">
<path id="Vector" d="M1543.61 318.709V2.87082H1635.88V63.8849H1590.53V125.437H1634.04V184.836H1590.53V257.156H1638.89V318.709H1543.61Z" fill="var(--fill-0, #EEE6D9)"/>
<path id="Vector_2" d="M1436.93 318.709V2.87082H1483.06V264.873H1530.51V318.709H1436.93Z" fill="var(--fill-0, #EEE6D9)"/>
<path id="Vector_3" d="M1345.06 318.709V214.805L1308.23 2.87082H1353.97L1366.81 109.825L1379.66 2.87082H1425.27L1388.57 214.805V318.709H1345.06Z" fill="var(--fill-0, #EEE6D9)"/>
<path id="Vector_4" d="M1230.77 318.709V63.526H1203.38V2.87082H1304.3V63.526H1276.91V318.709H1230.77Z" fill="var(--fill-0, #EEE6D9)"/>
<path id="Vector_5" d="M1141.79 321.58C1120.73 321.58 1105.53 314.402 1096.18 300.046C1086.92 285.69 1082.29 262.839 1082.29 231.495V200.629H1127.89V240.108C1127.89 247.406 1128.68 253.149 1130.25 257.336C1131.91 261.404 1134.75 263.437 1138.77 263.437C1142.97 263.437 1145.85 261.762 1147.42 258.413C1149.08 255.063 1149.91 249.56 1149.91 241.903C1149.91 232.212 1149.21 224.137 1147.81 217.677C1146.42 211.097 1143.97 204.876 1140.48 199.014C1137.07 193.032 1132.31 186.093 1126.19 178.197L1105.48 151.279C1090.02 131.3 1082.29 108.45 1082.29 82.7279C1082.29 55.81 1086.83 35.2925 1095.92 21.1755C1105.09 7.05849 1118.33 0 1135.63 0C1156.77 0 1171.76 7.71649 1180.58 23.1495C1189.49 38.5824 1193.95 62.031 1193.95 93.4951H1147.03V71.7813C1147.03 67.4744 1146.11 64.1246 1144.28 61.7319C1142.53 59.3392 1140.13 58.1428 1137.07 58.1428C1133.4 58.1428 1130.69 59.5785 1128.94 62.4497C1127.28 65.2013 1126.45 68.7904 1126.45 73.2169C1126.45 77.6434 1127.33 82.4289 1129.07 87.5732C1130.82 92.7175 1134.27 98.6395 1139.43 105.339L1166.03 140.332C1171.36 147.271 1176.25 154.629 1180.71 162.405C1185.17 170.062 1188.75 179.035 1191.46 189.323C1194.17 199.492 1195.52 211.934 1195.52 226.649C1195.52 256.319 1191.5 279.588 1183.46 296.457C1175.51 313.206 1161.62 321.58 1141.79 321.58Z" fill="var(--fill-0, #EEE6D9)"/>
<path id="Vector_6" d="M1001.03 227.367V185.733H1068.66V227.367H1001.03Z" fill="var(--fill-0, #EEE6D9)"/>
<path id="Vector_7" d="M876.523 318.709V2.87082H922.131V129.385L943.625 2.87082H990.02L964.201 147.51L995.393 318.709H947.557L922.393 165.814V318.709H876.523Z" fill="var(--fill-0, #EEE6D9)"/>
<path id="Vector_8" d="M748.609 318.709V2.87082H819.381C831.176 2.87082 840.088 6.57952 846.117 13.9969C852.146 21.2947 856.165 31.5833 858.174 44.8629C860.271 58.0228 861.32 73.5156 861.32 91.3413C861.32 108.569 859.703 122.327 856.471 132.616C853.325 142.904 847.34 150.022 838.515 153.97C845.767 156.004 850.835 160.969 853.718 168.865C856.689 176.641 858.174 186.751 858.174 199.193V318.709H812.697V195.065C812.697 185.853 811.299 180.171 808.503 178.017C805.794 175.744 801.382 174.608 795.266 174.608V318.709H748.609ZM795.528 119.874H806.668C813.046 119.874 816.235 110.363 816.235 91.3413C816.235 79.0188 815.536 70.9434 814.138 67.1151C812.74 63.2867 810.119 61.3726 806.275 61.3726H795.528V119.874Z" fill="var(--fill-0, #EEE6D9)"/>
<path id="Vector_9" d="M673.119 321.58C654.683 321.58 640.573 313.983 630.787 298.79C621.089 283.476 616.239 261.404 616.239 232.571V82.5485C616.239 55.5109 621.045 34.9934 630.656 20.996C640.354 6.99868 654.509 0 673.119 0C691.729 0 705.84 6.99868 715.451 20.996C725.15 34.9934 729.999 55.5109 729.999 82.5485V232.571C729.999 261.404 725.106 283.476 715.32 298.79C705.622 313.983 691.555 321.58 673.119 321.58ZM673.512 263.437C680.502 263.437 683.997 254.166 683.997 235.622V81.4718C683.997 65.9192 680.589 58.1428 673.774 58.1428C666.086 58.1428 662.241 66.0986 662.241 82.0101V235.981C662.241 245.791 663.115 252.85 664.862 257.156C666.61 261.344 669.493 263.437 673.512 263.437Z" fill="var(--fill-0, #EEE6D9)"/>
<path id="Vector_10" d="M526.202 318.709V214.805L489.375 2.87082H535.114L547.958 109.825L560.802 2.87082H606.411L569.714 214.805V318.709H526.202Z" fill="var(--fill-0, #EEE6D9)"/>
<path id="Vector_11" d="M262.38 318.709L237.61 2.87082H282.694L295.407 202.243L308.382 2.87082H351.369L363.689 202.243L376.008 2.87082H421.617L396.453 318.709H341.146L329.613 166.712L318.604 318.709H262.38Z" fill="var(--fill-0, #EEE6D9)"/>
<path id="Vector_12" d="M133.68 318.709V2.87082H225.946V63.8849H180.599V125.437H224.111V184.836H180.599V257.156H228.96V318.709H133.68Z" fill="var(--fill-0, #EEE6D9)"/>
<path id="Vector_13" d="M0 318.709V2.87082H47.4435L68.6751 154.15V2.87082H113.235V318.709H68.1508L45.0844 160.79V318.709H0Z" fill="var(--fill-0, #EEE6D9)"/>
</g>
</svg>
