<svg preserveAspectRatio="none" width="100%" height="100%" overflow="visible" style="display: block;" viewBox="0 0 136.904 42.6738" fill="none" xmlns="http://www.w3.org/2000/svg">
<path id="Union" d="M61.2793 17.9551C62.6644 17.9551 63.8705 18.1217 64.8975 18.4561C65.9482 18.7665 66.8201 19.1366 67.5127 19.5664L68.1934 18.3135H69.4473C69.5428 19.5313 69.6737 20.797 69.8408 22.1104C70.008 23.3999 70.1991 24.6061 70.4141 25.7285L69.2324 26.0869C68.6353 24.3673 67.8944 23.0295 67.0107 22.0742C66.1273 21.0954 65.1722 20.4031 64.1455 19.9971C63.1425 19.5911 62.151 19.3877 61.1719 19.3877C59.4284 19.3877 57.9588 19.865 56.7646 20.8203C55.5944 21.7756 54.7113 23.0777 54.1143 24.7256C53.5411 26.3735 53.2539 28.2366 53.2539 30.3145C53.2539 32.3683 53.5411 34.2071 54.1143 35.8311C54.6875 37.4312 55.5234 38.6975 56.6221 39.6289C57.7206 40.5363 59.0577 40.9901 60.6338 40.9902C61.78 40.9902 62.8074 40.7397 63.7148 40.2383C64.6223 39.7129 65.3388 38.9604 65.8643 37.9814C66.3897 37.0022 66.6533 35.7953 66.6533 34.3623V32.3564L66.4023 32.1055H63.7871V30.8516H72.4561V32.1055H70.7012L70.4502 32.3564V42.3154H69.1963L67.1182 39.8076H66.9395C66.3424 40.4047 65.7333 40.9187 65.1123 41.3486C64.4915 41.7784 63.787 42.1005 62.999 42.3154C62.2109 42.5543 61.2553 42.6738 60.1328 42.6738H60.0967C58.4249 42.6738 56.8846 42.3754 55.4756 41.7783C54.0905 41.1574 52.8844 40.2977 51.8574 39.1992C50.8543 38.1006 50.0654 36.8108 49.4922 35.3301C48.9429 33.8493 48.6689 32.2489 48.6689 30.5293C48.669 28.6905 48.9788 27.0069 49.5996 25.4785C50.2444 23.9262 51.1285 22.5883 52.251 21.4658C53.3974 20.3433 54.7351 19.4828 56.2637 18.8857C57.7921 18.2648 59.4643 17.9551 61.2793 17.9551ZM128.064 17.9551C129.091 17.9551 130.035 18.0982 130.895 18.3848C131.754 18.6475 132.579 19.0532 133.367 19.6025L134.048 18.3135H135.302C135.397 19.5314 135.553 20.7734 135.768 22.0391C135.983 23.2809 136.209 24.4635 136.448 25.5859L135.266 25.9434C134.621 24.1523 133.844 22.7908 132.937 21.8594C132.053 20.9281 131.157 20.283 130.25 19.9248C129.342 19.5666 128.494 19.3877 127.706 19.3877C126.465 19.3878 125.438 19.7222 124.626 20.3906C123.814 21.0594 123.407 21.9434 123.407 23.042C123.407 23.9018 123.646 24.6182 124.124 25.1914C124.602 25.7645 125.234 26.2542 126.022 26.6602C126.811 27.0423 127.671 27.4123 128.603 27.7705C129.534 28.1048 130.465 28.4871 131.396 28.917C132.328 29.323 133.188 29.8126 133.976 30.3857C134.788 30.9351 135.421 31.6402 135.875 32.5C136.353 33.3597 136.591 34.4228 136.591 35.6885C136.591 37.1452 136.233 38.3994 135.517 39.4502C134.824 40.501 133.845 41.3013 132.579 41.8506C131.337 42.3999 129.868 42.6738 128.172 42.6738C126.954 42.6738 125.832 42.5307 124.805 42.2441C123.778 41.9337 122.858 41.5279 122.046 41.0264L121.33 42.2803H120.076C120.028 41.4682 119.932 40.5842 119.789 39.6289C119.646 38.6737 119.49 37.7424 119.323 36.835C119.156 35.9037 118.989 35.0674 118.822 34.3271L120.004 33.9688C120.792 35.8076 121.664 37.2642 122.619 38.3389C123.598 39.3897 124.59 40.1429 125.593 40.5967C126.596 41.0265 127.539 41.2412 128.423 41.2412C129.187 41.2412 129.916 41.1094 130.608 40.8467C131.325 40.5601 131.922 40.1306 132.399 39.5576C132.877 38.9844 133.116 38.2557 133.116 37.3721C133.116 36.4645 132.877 35.7123 132.399 35.1152C131.922 34.4943 131.289 33.9689 130.501 33.5391C129.713 33.1092 128.853 32.7147 127.922 32.3564C126.99 31.9743 126.046 31.5798 125.091 31.1738C124.16 30.7679 123.3 30.3027 122.512 29.7773C121.724 29.228 121.091 28.5587 120.613 27.7705C120.136 26.9585 119.896 25.9671 119.896 24.7969C119.897 23.388 120.243 22.1817 120.936 21.1787C121.652 20.1519 122.619 19.3637 123.837 18.8145C125.079 18.2413 126.488 17.9551 128.064 17.9551ZM11.751 18.3135C12.8257 18.3135 13.8886 18.4085 14.9395 18.5996C15.9903 18.7907 16.9459 19.1136 17.8057 19.5674C18.6891 19.9972 19.3936 20.5821 19.9189 21.3223C20.4444 22.0388 20.707 22.935 20.707 24.0098C20.707 25.5382 20.0621 26.8281 18.7725 27.8789C17.762 28.6835 16.4358 29.2953 14.7949 29.7188C15.906 29.8105 16.9099 30.0318 17.8057 30.3867C19.0951 30.8643 20.1103 31.5565 20.8506 32.4639C21.591 33.3476 21.9609 34.3991 21.9609 35.6172C21.9609 36.8112 21.686 37.8385 21.1367 38.6982C20.5875 39.5338 19.8594 40.2262 18.9521 40.7754C18.0685 41.3008 17.1007 41.6953 16.0498 41.958C14.999 42.1968 13.984 42.3164 13.0049 42.3164H0V41.0625H2.43652L2.72266 40.8115V19.8184L2.43652 19.5674H0V18.3135H11.751ZM45.4902 41.0625H47.7832V42.3164H38.2178V41.0625H40.4395L40.6904 40.8115L38.1787 34.04H29.5957L26.9336 40.8115L27.2197 41.0625H30.1934V42.3164H23.0283V41.0625H25.1064L34.0986 18.3135H36.7852L45.4902 41.0625ZM94.0703 24.0449L92.8877 24.4033C92.4339 23.1376 91.8728 22.1584 91.2041 21.4658C90.5354 20.7732 89.7351 20.2837 88.8037 19.9971C87.8723 19.7105 86.7614 19.5674 85.4717 19.5674H82.2119L81.9609 19.8184V29.2402H84.791C85.8178 29.2402 86.654 28.9416 87.2988 28.3447C87.9676 27.7238 88.3263 26.7079 88.374 25.2988H89.6279V34.4346H88.374C88.3263 33.0255 87.9676 32.0219 87.2988 31.4248C86.654 30.804 85.8178 30.4941 84.791 30.4941H81.9609V40.8115L82.2119 41.0625H85.8301C87.7408 41.0625 89.3176 40.6087 90.5596 39.7012C91.8013 38.7937 92.7561 37.3962 93.4248 35.5098H94.6787L93.1387 42.3164H74.9395V41.0625H77.375L77.6621 40.8115V19.8184L77.375 19.5674H74.9395V18.3135H92.7803L94.0703 24.0449ZM107.038 19.5674H104.603L104.352 19.8184V40.8115L104.603 41.0625H107.827C109.666 41.0624 111.206 40.537 112.448 39.4863C113.714 38.4116 114.705 36.8469 115.422 34.793H116.676L114.991 42.3164H97.3301V41.0625H99.7656L100.053 40.8115V19.8184L99.7656 19.5674H97.3301V18.3135H107.038V19.5674ZM7.02246 40.8115L7.27246 41.0625H11.9658C12.9689 41.0625 13.8765 40.8949 14.6885 40.5605C15.5004 40.2262 16.1576 39.6773 16.6592 38.9131C17.1607 38.1488 17.4111 37.1453 17.4111 35.9033C17.4111 34.8525 17.1485 33.9327 16.623 33.1445C16.1215 32.3565 15.453 31.7472 14.6172 31.3174C13.8052 30.8875 12.9211 30.6729 11.9658 30.6729H7.02246V40.8115ZM30.0879 32.7871H37.7139L34.0986 23.042H33.9189L30.0879 32.7871ZM7.02246 19.8184V29.4189H10.7119C11.715 29.4189 12.6226 29.2636 13.4346 28.9531C14.2466 28.6426 14.9037 28.1173 15.4053 27.377C15.9068 26.6366 16.1572 25.6452 16.1572 24.4033C16.1572 23.3526 15.8944 22.4693 15.3691 21.7529C14.8676 21.0365 14.1991 20.4989 13.3633 20.1406C12.5512 19.7585 11.6673 19.5674 10.7119 19.5674H7.27246L7.02246 19.8184ZM132.497 0C133.038 0 133.518 0.0857253 133.936 0.257812C134.366 0.417618 134.79 0.645402 135.208 0.94043L135.595 0.18457H136.24C136.289 0.81135 136.364 1.41985 136.462 2.00977C136.56 2.59976 136.671 3.18402 136.794 3.76172L136.186 3.94531C135.878 3.03594 135.497 2.35421 135.042 1.89941C134.599 1.44462 134.145 1.13638 133.678 0.976562C133.211 0.816794 132.793 0.737342 132.424 0.737305C131.674 0.737305 131.059 0.940205 130.58 1.3457C130.101 1.75133 129.86 2.26767 129.86 2.89453C129.86 3.33707 129.984 3.70595 130.229 4.00098C130.488 4.28359 130.825 4.52309 131.243 4.71973C131.673 4.90407 132.134 5.08282 132.626 5.25488C133.13 5.41469 133.628 5.59335 134.12 5.79004C134.624 5.97441 135.085 6.20756 135.503 6.49023C135.933 6.77291 136.271 7.13571 136.517 7.57812C136.775 8.00837 136.904 8.54965 136.904 9.20117C136.904 9.95087 136.726 10.5897 136.369 11.1182C136.013 11.6344 135.528 12.0347 134.913 12.3174C134.311 12.5878 133.616 12.7227 132.829 12.7227C132.227 12.7226 131.668 12.6369 131.151 12.4648C130.635 12.2927 130.149 12.065 129.694 11.7822L129.308 12.5195H128.662C128.638 12.1018 128.588 11.6656 128.515 11.2109C128.441 10.7439 128.36 10.2891 128.274 9.84668C128.188 9.39199 128.103 8.97375 128.017 8.59277L128.625 8.4082C129.006 9.3178 129.449 10.0369 129.953 10.5654C130.469 11.0816 130.986 11.4506 131.502 11.6719C132.03 11.8808 132.504 11.9854 132.922 11.9854C133.303 11.9853 133.696 11.9111 134.102 11.7637C134.519 11.6039 134.876 11.3582 135.171 11.0264C135.466 10.6945 135.613 10.2639 135.613 9.73535C135.613 9.2438 135.485 8.8381 135.227 8.51855C134.981 8.19894 134.642 7.9283 134.212 7.70703C133.794 7.48583 133.333 7.28924 132.829 7.11719C132.338 6.93286 131.84 6.74878 131.336 6.56445C130.844 6.36782 130.383 6.13991 129.953 5.88184C129.535 5.61139 129.197 5.27911 128.938 4.88574C128.693 4.48014 128.569 3.98247 128.569 3.39258C128.569 2.6797 128.748 2.07134 129.104 1.56738C129.461 1.06338 129.934 0.675715 130.524 0.405273C131.127 0.1349 131.784 3.12449e-05 132.497 0ZM10.0498 10.2705H10.1416V0.921875L10.0498 0.829102H8.57422V0.18457H12.3545V0.829102H11.0635L10.9717 0.921875V12.5381H9.58887L2.48926 2.45215H2.39746V11.8008L2.48926 11.8926H3.96484V12.5381H0V11.8926H1.47559L1.56738 11.8008V0.921875L1.47559 0.829102H0V0.18457H2.9502L10.0498 10.2705ZM23.7295 3.13477L23.1211 3.31836C22.949 2.66701 22.7212 2.16307 22.4385 1.80664C22.1558 1.45024 21.7805 1.19827 21.3135 1.05078C20.8588 0.903371 20.2751 0.829124 19.5625 0.829102H17.2393L17.1465 0.921875V5.80762H19.0459C19.5744 5.80761 19.9674 5.67267 20.2256 5.40234C20.496 5.1319 20.6559 4.59062 20.7051 3.7793H21.3506V8.48145H20.7051C20.6559 7.6703 20.496 7.12978 20.2256 6.85938C19.9674 6.58898 19.5744 6.45313 19.0459 6.45312H17.1465V11.8008L17.2393 11.8926H19.7461C20.8156 11.8926 21.6275 11.6595 22.1807 11.1924C22.7338 10.7253 23.1393 10.0061 23.3975 9.03516H24.043L23.25 12.5381H13.9199V11.8926H15.3945L15.4873 11.8008V0.921875L15.3945 0.829102H13.9199V0.18457H23.0654L23.7295 3.13477ZM35.7461 3.13477L35.1377 3.31836C34.9656 2.66698 34.7315 2.16308 34.4365 1.80664C34.1538 1.45026 33.7544 1.19829 33.2383 1.05078C32.722 0.903282 32.0458 0.829116 31.21 0.829102V11.8008L31.3018 11.8926H32.7773V12.5381H27.9824V11.8926H29.458L29.5498 11.8008V0.829102C28.7141 0.829124 28.0377 0.90329 27.5215 1.05078C27.0177 1.19831 26.6182 1.45025 26.3232 1.80664C26.0283 2.16304 25.7951 2.66708 25.623 3.31836L25.0137 3.13477L25.6777 0.18457H35.082L35.7461 3.13477ZM41.7451 0.829102H40.2695L40.1777 0.921875V5.80762H46.2627V0.921875L46.1699 0.829102H44.6953V0.18457H49.4893V0.829102H48.0146L47.9219 0.921875V11.8008L48.0146 11.8926H49.4893V12.5381H44.6953V11.8926H46.1699L46.2627 11.8008V6.45312H40.1777V11.8008L40.2695 11.8926H41.7451V12.5381H36.9512V11.8926H38.4258L38.5176 11.8008V0.921875L38.4258 0.829102H36.9512V0.18457H41.7451V0.829102ZM61.1484 3.13477L60.54 3.31836C60.3679 2.66698 60.1401 2.16308 59.8574 1.80664C59.5747 1.45019 59.1995 1.19829 58.7324 1.05078C58.2776 0.903304 57.6934 0.829102 56.9805 0.829102H54.6572L54.5654 0.921875V5.80762H56.4648C56.9933 5.80757 57.3864 5.67271 57.6445 5.40234C57.915 5.1319 58.0749 4.59062 58.124 3.7793H58.7695V8.48145H58.124C58.0748 7.67034 57.9149 7.1298 57.6445 6.85938C57.3864 6.58898 56.9933 6.45317 56.4648 6.45312H54.5654V11.8008L54.6572 11.8926H57.165C58.2345 11.8926 59.0464 11.6595 59.5996 11.1924C60.1527 10.7253 60.5583 10.0061 60.8164 9.03516H61.4619L60.6689 12.5381H51.3389V11.8926H52.8135L52.9062 11.8008V0.921875L52.8135 0.829102H51.3389V0.18457H60.4844L61.1484 3.13477ZM68.5547 0.18457C69.0832 0.184581 69.6183 0.238985 70.1592 0.349609C70.6999 0.447958 71.1976 0.620419 71.6523 0.866211C72.1072 1.09977 72.4698 1.41954 72.7402 1.8252C73.0229 2.23082 73.164 2.74091 73.1641 3.35547C73.1641 3.94547 73.0167 4.46178 72.7217 4.9043C72.4267 5.33455 72.0453 5.6909 71.5781 5.97363C71.111 6.25632 70.6072 6.47164 70.0664 6.61914C70.0215 6.63062 69.9762 6.63891 69.9316 6.64941L73.8096 11.8926H75.1924V12.5381H70.1406V11.8926H71.6152L71.708 11.8008L68.0488 6.82227H66.3418V11.8008L66.4336 11.8926H67.9092V12.5381H63.1152V11.8926H64.5898L64.6826 11.8008V0.921875L64.5898 0.829102H63.1152V0.18457H68.5547ZM80.9102 0.829102H79.4346L79.3428 0.921875V11.8008L79.4346 11.8926H81.5742C82.6436 11.8925 83.4672 11.5978 84.0449 11.0078C84.6226 10.4178 85.0407 9.63709 85.2988 8.66602H85.9443L85.0771 12.5381H76.1162V11.8926H77.5908L77.6836 11.8008V0.921875L77.5908 0.829102H76.1162V0.18457H80.9102V0.829102ZM97.6279 11.8926H98.8818V12.5381H94.5117V11.8926H95.7109L95.8027 11.8008L94.5 8.11328H89.8818L88.4824 11.8008L88.5742 11.8926H90.0869V12.5381H86.4912V11.8926H87.5605L92.0225 0.18457H93.4053L97.6279 11.8926ZM110.133 10.2705H110.225V0.921875L110.133 0.829102H108.657V0.18457H112.438V0.829102H111.146L111.055 0.921875V12.5381H109.672L102.572 2.45215H102.48V11.8008L102.572 11.8926H104.048V12.5381H100.083V11.8926H101.559L101.65 11.8008V0.921875L101.559 0.829102H100.083V0.18457H103.034L110.133 10.2705ZM119.719 0.18457C120.665 0.18457 121.52 0.325664 122.282 0.608398C123.056 0.878804 123.714 1.27193 124.255 1.78809C124.808 2.30435 125.232 2.93145 125.527 3.66895C125.835 4.40649 125.988 5.24254 125.988 6.17676C125.988 7.08643 125.828 7.92868 125.509 8.70312C125.202 9.47744 124.766 10.1538 124.2 10.7314C123.635 11.2969 122.97 11.739 122.208 12.0586C121.446 12.3782 120.616 12.5381 119.719 12.5381H114.003V11.8926H115.478L115.57 11.8008V0.921875L115.478 0.829102H114.003V0.18457H119.719ZM117.229 0.921875V11.8008L117.322 11.8926H119.719C120.628 11.8926 121.422 11.6657 122.098 11.2109C122.774 10.7561 123.296 10.1166 123.665 9.29297C124.046 8.4571 124.236 7.47989 124.236 6.36133C124.236 5.29185 124.04 4.33884 123.646 3.50293C123.253 2.66718 122.688 2.01591 121.95 1.54883C121.225 1.06947 120.358 0.829159 119.351 0.829102H117.322L117.229 0.921875ZM90.127 7.46777H94.2715L92.3174 1.93555H92.2256L90.127 7.46777ZM66.3418 0.921875V6.17676H68.1855C68.7879 6.17676 69.3292 6.10357 69.8086 5.95605C70.3001 5.80859 70.687 5.54393 70.9697 5.16309C71.2648 4.76972 71.4131 4.21591 71.4131 3.50293C71.413 2.8884 71.2647 2.38453 70.9697 1.99121C70.6748 1.59797 70.2816 1.30938 69.79 1.125C69.2983 0.928315 68.7633 0.829102 68.1855 0.829102H66.4336L66.3418 0.921875Z" fill="var(--fill-0, black)"/>
</svg>
