<svg preserveAspectRatio="none" width="100%" height="100%" overflow="visible" style="display: block;" viewBox="0 0 114.107 35.5684" fill="none" xmlns="http://www.w3.org/2000/svg">
<path id="Union" d="M51.0752 14.9648C52.2297 14.9648 53.2349 15.1042 54.0908 15.3828C54.9666 15.6416 55.6932 15.9503 56.2705 16.3086L56.8379 15.2637H57.8828C57.9624 16.2789 58.0726 17.3339 58.2119 18.4287C58.3512 19.5036 58.5103 20.5088 58.6895 21.4443L57.7041 21.7432C57.2064 20.3099 56.5891 19.1947 55.8525 18.3984C55.1161 17.5824 54.3197 17.0054 53.4639 16.667C52.6278 16.3286 51.8015 16.1592 50.9854 16.1592C49.5323 16.1592 48.3078 16.5573 47.3125 17.3535C46.3372 18.1497 45.6012 19.235 45.1035 20.6084C44.6258 21.9819 44.3867 23.5347 44.3867 25.2666C44.3867 26.9785 44.6258 28.5116 45.1035 29.8652C45.5813 31.1988 46.2777 32.254 47.1934 33.0303C48.109 33.7867 49.2243 34.165 50.5381 34.165C51.4933 34.165 52.3492 33.956 53.1055 33.5381C53.8619 33.1001 54.4595 32.4724 54.8975 31.6562C55.3353 30.8401 55.5537 29.8348 55.5537 28.6406V26.9688L55.3447 26.7598H53.165V25.7148H60.3916V26.7598H58.9287L58.7197 26.9688V35.2695H57.6738L55.9424 33.1797H55.793C55.2954 33.6773 54.788 34.1056 54.2705 34.4639C53.753 34.8221 53.1656 35.0904 52.5088 35.2695C51.852 35.4686 51.0555 35.5683 50.1201 35.5684H50.0898C48.6965 35.5684 47.4127 35.3189 46.2383 34.8213C45.0837 34.3037 44.0777 33.5876 43.2217 32.6719C42.3857 31.7562 41.7287 30.6813 41.251 29.4473C40.7931 28.2131 40.5645 26.8786 40.5645 25.4453C40.5645 23.9127 40.8233 22.5093 41.3408 21.2354C41.8783 19.9415 42.6152 18.8272 43.5508 17.8916C44.5062 16.956 45.6206 16.2389 46.8945 15.7412C48.1685 15.2236 49.5623 14.9648 51.0752 14.9648ZM106.74 14.9648C107.596 14.9649 108.382 15.0844 109.099 15.3232C109.815 15.5422 110.502 15.881 111.159 16.3389L111.727 15.2637H112.771C112.851 16.2789 112.981 17.3141 113.16 18.3691C113.339 19.4042 113.528 20.3897 113.728 21.3252L112.742 21.624C112.205 20.131 111.557 18.9961 110.801 18.2197C110.064 17.4434 109.318 16.906 108.562 16.6074C107.805 16.3088 107.098 16.1592 106.441 16.1592C105.406 16.1592 104.55 16.4377 103.873 16.9951C103.196 17.5525 102.858 18.2894 102.858 19.2051C102.858 19.9217 103.057 20.5193 103.455 20.9971C103.853 21.4748 104.381 21.8823 105.038 22.2207C105.695 22.5392 106.411 22.8479 107.188 23.1465C107.964 23.4251 108.74 23.7433 109.517 24.1016C110.293 24.44 111.01 24.8484 111.667 25.3262C112.344 25.784 112.871 26.3714 113.249 27.0879C113.647 27.8044 113.847 28.6903 113.847 29.7451C113.847 30.9594 113.548 32.005 112.951 32.8809C112.374 33.7567 111.557 34.424 110.502 34.8818C109.467 35.3395 108.243 35.5683 106.83 35.5684C105.815 35.5684 104.878 35.4488 104.022 35.21C103.167 34.9512 102.4 34.6123 101.724 34.1943L101.126 35.2393H100.081C100.041 34.5626 99.9622 33.8263 99.8428 33.0303C99.7233 32.234 99.5934 31.4576 99.4541 30.7012C99.3148 29.925 99.1754 29.2283 99.0361 28.6113L100.021 28.3125C100.678 29.8452 101.405 31.0593 102.201 31.9551C103.017 32.8309 103.844 33.4577 104.68 33.8359C105.516 34.1943 106.303 34.374 107.039 34.374C107.676 34.374 108.283 34.2638 108.86 34.0449C109.457 33.806 109.955 33.4484 110.354 32.9707C110.752 32.4931 110.95 31.8857 110.95 31.1494C110.95 30.393 110.752 29.7652 110.354 29.2676C109.955 28.75 109.427 28.3124 108.771 27.9541C108.114 27.5958 107.396 27.2673 106.62 26.9688C105.844 26.6503 105.058 26.3217 104.262 25.9834C103.485 25.645 102.768 25.2563 102.111 24.8184C101.455 24.3606 100.927 23.8032 100.529 23.1465C100.131 22.4697 99.9316 21.6434 99.9316 20.668C99.9317 19.4936 100.221 18.4884 100.798 17.6523C101.395 16.7964 102.202 16.1395 103.217 15.6816C104.252 15.2039 105.426 14.9648 106.74 14.9648ZM9.79395 15.2637C10.6897 15.2637 11.5754 15.3437 12.4512 15.5029C13.3269 15.6622 14.1233 15.9305 14.8398 16.3086C15.5762 16.6668 16.1636 17.1546 16.6016 17.7715C17.0395 18.3687 17.2588 19.1159 17.2588 20.0117C17.2587 21.2856 16.7213 22.3605 15.6465 23.2363C14.8048 23.9065 13.7004 24.4166 12.334 24.7695C13.2587 24.8462 14.0941 25.0307 14.8398 25.3262C15.9148 25.7243 16.7608 26.3021 17.3779 27.0586C17.9949 27.795 18.3036 28.6705 18.3037 29.6855C18.3037 30.6809 18.075 31.5373 17.6172 32.2539C17.1594 32.9505 16.5522 33.5275 15.7959 33.9854C15.0594 34.4233 14.2528 34.7517 13.377 34.9707C12.5011 35.1698 11.655 35.2695 10.8389 35.2695H0V34.2246H2.03027L2.26953 34.0156V16.5176L2.03027 16.3086H0V15.2637H9.79395ZM37.916 34.2246H39.8262V35.2695H31.8545V34.2246H33.7051L33.9141 34.0156L31.8203 28.3721H24.667L22.4482 34.0156L22.6875 34.2246H25.165V35.2695H19.1934V34.2246H20.9258L28.4199 15.2637H30.6602L37.916 34.2246ZM78.4062 20.041L77.4209 20.3398C77.0428 19.285 76.5748 18.4689 76.0176 17.8916C75.4602 17.3143 74.7929 16.9059 74.0166 16.667C73.2402 16.4281 72.3142 16.3086 71.2393 16.3086H68.5225L68.3135 16.5176V24.3711H70.6719C71.5279 24.3711 72.2252 24.1217 72.7627 23.624C73.3199 23.1064 73.6184 22.2602 73.6582 21.0859H74.7031V28.7002H73.6582C73.6184 27.526 73.3199 26.69 72.7627 26.1924C72.2252 25.6748 71.5279 25.416 70.6719 25.416H68.3135V34.0156L68.5225 34.2246H71.5381C73.1306 34.2246 74.4444 33.8462 75.4795 33.0898C76.5145 32.3335 77.3108 31.1691 77.8682 29.5967H78.9131L77.6299 35.2695H62.4609V34.2246H64.4912L64.7305 34.0156V16.5176L64.4912 16.3086H62.4609V15.2637H77.3311L78.4062 20.041ZM89.2148 16.3086H87.1846L86.9756 16.5176V34.0156L87.1846 34.2246H89.8721C91.4046 34.2246 92.6886 33.7868 93.7236 32.9111C94.7787 32.0153 95.605 30.711 96.2021 28.999H97.2471L95.8438 35.2695H81.123V34.2246H83.1533L83.3926 34.0156V16.5176L83.1533 16.3086H81.123V15.2637H89.2148V16.3086ZM5.85254 34.0156L6.06152 34.2246H9.97266C10.8086 34.2246 11.5654 34.0853 12.2422 33.8066C12.919 33.5279 13.4667 33.0696 13.8848 32.4326C14.3027 31.7957 14.5117 30.9598 14.5117 29.9248C14.5117 29.049 14.2924 28.2829 13.8545 27.626C13.4365 26.9691 12.8793 26.4609 12.1826 26.1025C11.5058 25.7443 10.7689 25.5654 9.97266 25.5654H5.85254V34.0156ZM25.0771 27.3271H31.4326L28.4199 19.2051H28.2705L25.0771 27.3271ZM5.85254 16.5176V24.5205H8.92773C9.76381 24.5205 10.5204 24.3906 11.1973 24.1318C11.8741 23.8731 12.4218 23.4354 12.8398 22.8184C13.2579 22.2013 13.4668 21.3749 13.4668 20.3398C13.4668 19.464 13.2475 18.7271 12.8096 18.1299C12.3916 17.5328 11.8343 17.0847 11.1377 16.7861C10.4609 16.4676 9.72398 16.3086 8.92773 16.3086H6.06152L5.85254 16.5176ZM110.435 0C110.885 0 111.285 0.0723778 111.634 0.21582C111.992 0.348976 112.345 0.538478 112.693 0.78418L113.017 0.154297H113.555C113.596 0.6767 113.657 1.1841 113.739 1.67578C113.821 2.16745 113.913 2.65431 114.016 3.13574L113.509 3.28906C113.253 2.53087 112.935 1.96211 112.556 1.58301C112.187 1.20392 111.807 0.947647 111.418 0.814453C111.029 0.681326 110.68 0.615234 110.373 0.615234C109.748 0.615247 109.236 0.783968 108.836 1.12207C108.436 1.46016 108.237 1.89063 108.237 2.41309C108.237 2.78178 108.339 3.08911 108.544 3.33496C108.759 3.57062 109.041 3.77064 109.39 3.93457C109.748 4.08821 110.132 4.23649 110.542 4.37988C110.962 4.51308 111.377 4.66224 111.787 4.82617C112.207 4.97984 112.591 5.17456 112.939 5.41016C113.298 5.64576 113.58 5.94767 113.785 6.31641C114 6.67494 114.107 7.12607 114.107 7.66895C114.107 8.29391 113.959 8.82702 113.662 9.26758C113.365 9.69783 112.96 10.031 112.448 10.2666C111.946 10.492 111.367 10.6045 110.711 10.6045C110.209 10.6045 109.743 10.5331 109.312 10.3896C108.882 10.2462 108.478 10.0569 108.099 9.82129L107.775 10.4355H107.238C107.218 10.0873 107.177 9.72369 107.115 9.34473C107.054 8.95538 106.987 8.57588 106.915 8.20703C106.843 7.82802 106.772 7.47967 106.7 7.16211L107.207 7.00879C107.525 7.76681 107.893 8.36613 108.313 8.80664C108.744 9.23689 109.174 9.54408 109.604 9.72852C110.045 9.9027 110.44 9.99023 110.788 9.99023C111.106 9.99023 111.433 9.92856 111.771 9.80566C112.12 9.67247 112.417 9.46707 112.663 9.19043C112.909 8.91387 113.032 8.55558 113.032 8.11523C113.032 7.7054 112.924 7.36698 112.709 7.10059C112.504 6.83436 112.223 6.60916 111.864 6.4248C111.516 6.24038 111.131 6.07606 110.711 5.93262C110.301 5.77901 109.887 5.62528 109.467 5.47168C109.057 5.30775 108.672 5.11848 108.313 4.90332C107.965 4.67799 107.684 4.40096 107.469 4.07324C107.264 3.73513 107.161 3.31992 107.161 2.82812C107.161 2.23394 107.309 1.72669 107.606 1.30664C107.904 0.886559 108.298 0.563301 108.79 0.337891C109.292 0.112515 109.84 2.12947e-06 110.435 0ZM8.37598 8.56055H8.45312V0.768555L8.37598 0.692383H7.14648V0.154297H10.2969V0.692383H9.22168L9.14453 0.768555V10.4512H7.99121L2.07422 2.04395H1.99805V9.83594L2.07422 9.91309H3.30371V10.4512H0V9.91309H1.22949L1.30664 9.83594V0.768555L1.22949 0.692383H0V0.154297H2.45898L8.37598 8.56055ZM19.7783 2.61328L19.2705 2.7666C19.1271 2.2238 18.9377 1.80392 18.7021 1.50684C18.4665 1.20971 18.154 0.998928 17.7646 0.875977C17.3856 0.753051 16.8989 0.69239 16.3047 0.692383H14.3682L14.291 0.768555V4.8418H15.874C16.3146 4.8418 16.6423 4.72834 16.8574 4.50293C17.0828 4.27756 17.2168 3.82736 17.2578 3.15137H17.7949V7.07031H17.2578C17.2168 6.39408 17.0828 5.94318 16.8574 5.71777C16.6423 5.49243 16.3145 5.37988 15.874 5.37988H14.291V9.83594L14.3682 9.91309H16.458C17.3494 9.91309 18.0262 9.71845 18.4873 9.3291C18.9482 8.93979 19.2858 8.34039 19.501 7.53125H20.0391L19.3779 10.4512H11.6016V9.91309H12.8311L12.9082 9.83594V0.768555L12.8311 0.692383H11.6016V0.154297H19.2246L19.7783 2.61328ZM29.793 2.61328L29.2861 2.7666C29.1427 2.22375 28.948 1.80393 28.7021 1.50684C28.4665 1.20971 28.1335 0.998928 27.7031 0.875977C27.2728 0.753064 26.7093 0.692386 26.0127 0.692383V9.83594L26.0898 9.91309H27.3193V10.4512H23.3232V9.91309H24.5527L24.6299 9.83594V0.692383C23.9332 0.692383 23.3688 0.753026 22.9385 0.875977C22.5185 0.998939 22.1853 1.20977 21.9395 1.50684C21.6937 1.80394 21.4988 2.22384 21.3555 2.7666L20.8486 2.61328L21.4023 0.154297H29.2402L29.793 2.61328ZM34.7939 0.692383H33.5645L33.4873 0.768555V4.8418H38.5596V0.768555L38.4824 0.692383H37.2529V0.154297H41.249V0.692383H40.0195L39.9424 0.768555V9.83594L40.0195 9.91309H41.249V10.4512H37.2529V9.91309H38.4824L38.5596 9.83594V5.37988H33.4873V9.83594L33.5645 9.91309H34.7939V10.4512H30.7979V9.91309H32.0273L32.1045 9.83594V0.768555L32.0273 0.692383H30.7979V0.154297H34.7939V0.692383ZM50.9658 2.61328L50.459 2.7666C50.3156 2.22387 50.1261 1.80393 49.8906 1.50684C49.655 1.20978 49.3423 0.99894 48.9531 0.875977C48.574 0.753026 48.0864 0.692383 47.4922 0.692383H45.5566L45.4795 0.768555V4.8418H47.0625C47.503 4.84177 47.8308 4.72831 48.0459 4.50293C48.2711 4.2775 48.4043 3.82713 48.4453 3.15137H48.9834V7.07031H48.4453C48.4043 6.39419 48.2712 5.94322 48.0459 5.71777C47.8308 5.49239 47.503 5.37991 47.0625 5.37988H45.4795V9.83594L45.5566 9.91309H47.6465C48.5378 9.91306 49.2138 9.71838 49.6748 9.3291C50.1358 8.93978 50.4743 8.34059 50.6895 7.53125H51.2275L50.5664 10.4512H42.79V9.91309H44.0195L44.0957 9.83594V0.768555L44.0195 0.692383H42.79V0.154297H50.4131L50.9658 2.61328ZM57.1396 0.154297C57.5801 0.154327 58.0259 0.199809 58.4766 0.291992C58.9272 0.373938 59.3418 0.517873 59.7207 0.722656C60.0997 0.91728 60.4025 1.18349 60.6279 1.52148C60.8636 1.8596 60.9814 2.28556 60.9814 2.79785C60.9814 3.28949 60.8581 3.72012 60.6123 4.08887C60.3665 4.44714 60.0491 4.74397 59.6602 4.97949C59.2708 5.21515 58.8502 5.39463 58.3994 5.51758C58.362 5.52715 58.3242 5.53421 58.2871 5.54297L61.5195 9.91309H62.6719V10.4512H58.4609V9.91309H59.6904L59.7676 9.83594L56.7168 5.68652H55.2949V9.83594L55.3721 9.91309H56.6016V10.4512H52.6055V9.91309H53.835L53.9121 9.83594V0.768555L53.835 0.692383H52.6055V0.154297H57.1396ZM67.4375 0.692383H66.208L66.1309 0.768555V9.83594L66.208 9.91309H67.9912C68.8822 9.913 69.5683 9.66729 70.0498 9.17578C70.5314 8.68398 70.8805 8.03306 71.0957 7.22363H71.6328L70.9111 10.4512H63.4414V9.91309H64.6709L64.748 9.83594V0.768555L64.6709 0.692383H63.4414V0.154297H67.4375V0.692383ZM81.3721 9.91309H82.417V10.4512H78.7744V9.91309H79.7734L79.8506 9.83594L78.7646 6.7627H74.915L73.749 9.83594L73.8262 9.91309H75.0859V10.4512H72.0889V9.91309H72.9805L76.6992 0.154297H77.8525L81.3721 9.91309ZM91.7939 8.56055H91.8711V0.768555L91.7939 0.692383H90.5645V0.154297H93.7148V0.692383H92.6396L92.5625 0.768555V10.4512H91.4102L85.4932 2.04395H85.416V9.83594L85.4932 9.91309H86.7227V10.4512H83.418V9.91309H84.6475L84.7246 9.83594V0.768555L84.6475 0.692383H83.418V0.154297H85.877L91.7939 8.56055ZM99.7842 0.154297C100.573 0.154329 101.285 0.272209 101.92 0.507812C102.565 0.73322 103.114 1.06089 103.564 1.49121C104.025 1.92151 104.379 2.44389 104.625 3.05859C104.881 3.67323 105.009 4.36993 105.009 5.14844C105.009 5.90663 104.876 6.60939 104.609 7.25488C104.353 7.90016 103.99 8.46388 103.519 8.94531C103.047 9.41656 102.494 9.78539 101.858 10.0518C101.223 10.318 100.532 10.4511 99.7842 10.4512H95.0195V9.91309H96.249L96.3262 9.83594V0.768555L96.249 0.692383H95.0195V0.154297H99.7842ZM97.709 0.768555V9.83594L97.7861 9.91309H99.7842C100.542 9.91303 101.203 9.72377 101.767 9.34473C102.33 8.96563 102.766 8.43255 103.073 7.74609C103.391 7.04947 103.549 6.23492 103.549 5.30273C103.549 4.41134 103.385 3.61664 103.058 2.91992C102.73 2.22335 102.258 1.6803 101.644 1.29102C101.039 0.891476 100.317 0.692396 99.4766 0.692383H97.7861L97.709 0.768555ZM75.1191 6.22461H78.5742L76.9453 1.61426H76.8691L75.1191 6.22461ZM55.2949 0.768555V5.14844H56.832C57.334 5.14842 57.785 5.08778 58.1846 4.96484C58.5943 4.84191 58.9167 4.62121 59.1523 4.30371C59.3982 3.97584 59.5215 3.51418 59.5215 2.91992C59.5214 2.40784 59.3982 1.98792 59.1523 1.66016C58.9064 1.33233 58.5787 1.09117 58.1689 0.9375C57.7592 0.773613 57.3135 0.692405 56.832 0.692383H55.3721L55.2949 0.768555Z" fill="var(--fill-0, #EEE6D9)"/>
</svg>
